<svg version="1.1" id="Layer_1" xmlns="http://www.w3.org/2000/svg" xmlns:xlink="http://www.w3.org/1999/xlink" x="0px" y="0px"
	 width="100%" viewBox="0 0 500 500" enable-background="new 0 0 500 500" xml:space="preserve">
<path fill="#000000" opacity="1.000000" stroke="none" 
	d="
M272.000000,501.000000 
	C181.333359,501.000000 91.166710,501.000000 1.000048,501.000000 
	C1.000032,334.333405 1.000032,167.666794 1.000016,1.000138 
	C167.666565,1.000092 334.333130,1.000092 500.999756,1.000046 
	C500.999847,167.666519 500.999847,334.333038 500.999939,500.999786 
	C424.833344,501.000000 348.666656,501.000000 272.000000,501.000000 
M187.929794,269.738373 
	C190.280655,298.868134 215.515396,315.210175 245.186371,314.445862 
	C240.474426,279.190521 216.135559,251.423447 187.839996,248.970963 
	C187.839996,255.593231 187.839996,262.218719 187.929794,269.738373 
M297.539093,254.096237 
	C270.656189,265.333923 261.879486,288.872620 256.121521,314.625549 
	C293.323639,318.027588 324.268494,282.233978 313.221649,248.391129 
	C308.225861,250.210434 303.240631,252.025909 297.539093,254.096237 
M300.346497,227.078430 
	C304.807709,228.598984 309.268890,230.119553 313.870239,231.687897 
	C313.870239,215.877090 313.870239,200.827164 313.870239,185.865723 
	C300.199951,185.865723 286.927307,185.865723 273.238159,185.865723 
	C273.238159,191.941177 272.937653,197.754593 273.375000,203.511963 
	C273.570374,206.084427 274.681061,209.034332 276.353302,210.968124 
	C282.663635,218.265411 290.745636,223.189407 300.346497,227.078430 
M216.457703,185.576782 
	C206.852982,185.576782 197.248276,185.576782 187.678528,185.576782 
	C187.678528,201.263443 187.678528,216.162369 187.678528,231.478088 
	C202.868958,227.597321 216.255356,221.476120 226.568939,209.828629 
	C227.399979,208.890106 228.215210,207.534561 228.242859,206.354172 
	C228.401535,199.581970 228.320038,192.804153 228.320038,185.576721 
	C224.361176,185.576721 220.900146,185.576721 216.457703,185.576782 
z"/>
<path fill="#5DDDE2" opacity="1.000000" stroke="none" 
	d="
M187.884888,269.291321 
	C187.839996,262.218719 187.839996,255.593231 187.839996,248.970963 
	C216.135559,251.423447 240.474426,279.190521 245.186371,314.445862 
	C215.515396,315.210175 190.280655,298.868134 187.884888,269.291321 
z"/>
<path fill="#5EDEE3" opacity="1.000000" stroke="none" 
	d="
M297.897217,253.968811 
	C303.240631,252.025909 308.225861,250.210434 313.221649,248.391129 
	C324.268494,282.233978 293.323639,318.027588 256.121521,314.625549 
	C261.879486,288.872620 270.656189,265.333923 297.897217,253.968811 
z"/>
<path fill="#5EDEE3" opacity="1.000000" stroke="none" 
	d="
M299.980896,226.967529 
	C290.745636,223.189407 282.663635,218.265411 276.353302,210.968124 
	C274.681061,209.034332 273.570374,206.084427 273.375000,203.511963 
	C272.937653,197.754593 273.238159,191.941177 273.238159,185.865723 
	C286.927307,185.865723 300.199951,185.865723 313.870239,185.865723 
	C313.870239,200.827164 313.870239,215.877090 313.870239,231.687897 
	C309.268890,230.119553 304.807709,228.598984 299.980896,226.967529 
z"/>
<path fill="#5DDDE2" opacity="1.000000" stroke="none" 
	d="
M216.948410,185.576752 
	C220.900146,185.576721 224.361176,185.576721 228.320038,185.576721 
	C228.320038,192.804153 228.401535,199.581970 228.242859,206.354172 
	C228.215210,207.534561 227.399979,208.890106 226.568939,209.828629 
	C216.255356,221.476120 202.868958,227.597321 187.678528,231.478088 
	C187.678528,216.162369 187.678528,201.263443 187.678528,185.576782 
	C197.248276,185.576782 206.852982,185.576782 216.948410,185.576752 
z"/>
</svg>