<?xml version="1.0" standalone="no"?>
<!DOCTYPE svg PUBLIC "-//W3C//DTD SVG 20010904//EN"
 "http://www.w3.org/TR/2001/REC-SVG-20010904/DTD/svg10.dtd">
<svg version="1.0" xmlns="http://www.w3.org/2000/svg"
 width="300.000000pt" height="300.000000pt" viewBox="0 0 300.000000 300.000000"
 preserveAspectRatio="xMidYMid meet">
<metadata>
Created by potrace 1.10, written by Peter Selinger 2001-2011
</metadata>
<g transform="translate(0.000000,300.000000) scale(0.100000,-0.100000)"
fill="#000000" stroke="none">
<path d="M1117 1894 c-9 -9 -9 -268 -1 -277 12 -12 139 44 191 85 59 45 66 60
61 139 l-3 54 -121 3 c-66 1 -123 -1 -127 -4z m227 -48 c8 -44 4 -70 -15 -94
-26 -33 -80 -73 -90 -66 -5 3 -9 1 -9 -4 0 -11 -53 -32 -81 -32 -17 0 -19 9
-19 98 0 53 4 102 8 109 7 12 146 22 185 14 9 -2 19 -13 21 -25z"/>
<path d="M1630 1827 c0 -80 7 -91 87 -146 32 -22 158 -73 164 -66 2 2 3 67 1
144 l-3 141 -125 0 -124 0 0 -73z m233 -62 c3 -128 -3 -134 -84 -93 -34 18
-77 47 -96 67 -30 31 -34 40 -31 81 l3 45 95 5 c52 3 99 2 103 -1 4 -3 9 -50
10 -104z"/>
<path d="M1110 1477 c0 -159 61 -271 175 -323 53 -24 172 -51 181 -41 9 8 -33
142 -62 199 -47 93 -112 147 -226 189 -29 10 -56 19 -60 19 -5 0 -8 -19 -8
-43z m119 -19 c78 -39 172 -150 185 -219 2 -13 9 -36 16 -51 13 -27 7 -64 -8
-54 -5 3 -24 8 -43 11 -44 7 -133 51 -164 79 -39 36 -72 115 -80 189 l-6 67
27 0 c15 0 48 -10 73 -22z"/>
<path d="M1809 1496 c-115 -47 -177 -103 -224 -201 -29 -62 -61 -173 -52 -181
4 -4 35 -1 69 5 188 37 278 141 278 321 0 44 -3 80 -7 80 -5 0 -33 -11 -64
-24z m50 -78 c-1 -35 -8 -78 -16 -97 -16 -41 -74 -120 -87 -121 -5 0 -17 -6
-25 -14 -20 -18 -142 -55 -159 -49 -31 12 34 178 96 246 32 34 96 77 124 82
12 3 23 7 26 10 3 3 14 5 24 5 17 0 19 -7 17 -62z"/>
</g>
</svg>
