<svg xmlns="http://www.w3.org/2000/svg" width="500" height="500">
    <path d="M314 247c.528 19.274.005 37.26-13.98 52.16-13 11.844-29.162 14.546-46.02 15.84 5.467-22.473 11.94-43.738 31.875-57.625 7.654-4.656 19-10.375 28.125-10.375Z" fill="#5BDBE0"/>
    <path d="M186 247c7.465 1.513 14.068 3.818 21 7l2.379 1.086C225.26 263.098 234.285 277.678 240 294c5 15.676 5 15.676 5 21-19.299-1.583-36.96-5.84-50.059-21.258-7.648-10.803-9.277-22.93-9.066-35.805l.027-3.2c.024-2.58.056-5.158.098-7.737Z" fill="#5BDCE0"/>
    <path d="M272 184h42v47c-13.273-2.655-24.788-6.878-35-16l-1.856-1.618c-3.948-3.86-5.595-6.613-5.828-12.195.04-2.063.13-4.126.247-6.187l.437-11Z" fill="#57D5D9"/>
    <path d="M186 184h42l.438 11 .193 3.418c.104 5.46-.245 8.873-3.87 13.105A85.878 85.878 0 0 1 221 215l-2.414 2.102C209.636 223.269 197.239 231 186 231v-47Z" fill="#58D6DB"/>
    <path d="M187 185h40v22h-1l-1-20h-36l-1 43h-1v-45Z" fill="#6ED9DC"/>
    <path d="M273 185h40v44h-1l-.076-3.64c-.094-4.447-.194-8.893-.296-13.34-.044-1.926-.085-3.853-.125-5.78-.058-2.765-.122-5.53-.187-8.295l-.05-2.62c.012-4.299.012-4.299-1.266-8.325l-37-1v-1Z" fill="#72D8DA"/>
    <path d="M287 308c-9.041 3.347-17.247 5.8-27 6l2-4 1.906.035c5.475.058 10.679-.233 16.094-1.035v-2c3.486-1.202 3.68-1.213 7 1Z" fill="#57B4BA"/>
    <path d="M242 304c2 3 2 3 3 11l-17-2v-1l13-1 1-7Z" fill="#4C9D9F"/>
    <path d="m306 283 2 3c-1.036 5.182-3.496 8.227-7 12h-1v-6l5-1 1-8Z" fill="#50B0B5"/>
    <path d="M312 249v7c-2-1.375-2-1.375-4-3v-2h-6c3.802-2.534 5.684-3.34 10-2Z" fill="#56C6C8"/>
    <path d="m211 217 5 1c-3.46 2.95-6.784 5.259-11 7l-3-1c2.834-3.254 4.686-4.52 9-5v-2Z" fill="#50ABAC"/>
    <path d="m296 298 4 1c-1.247.962-2.498 1.92-3.75 2.875l-2.11 1.617c-1.987 1.4-3.938 2.487-6.14 3.508l1-4h4v-2l-2-1 5-1v-1Z" fill="#4CA2A2"/>
    <path d="M287 308c-1.747.675-3.498 1.34-5.25 2l-2.953 1.125C276 312 276 312 272 312v-2l8-1v-2c3.486-1.202 3.68-1.213 7 1Z" fill="#51A6A6"/>
    <path d="m295 254-1 3h-4v3l-3 1-3-2a397.108 397.108 0 0 1 3.813-2.5l2.144-1.406C292 254 292 254 295 254Z" fill="#4EA4A7"/>
    <path d="M207 255c4.993 1.277 7.576 3.173 11 7l-2 1-1-2-3.5-1.438L208 258l-1-3Z" fill="#4C9DA1"/>
    <path d="M187 267h1l1 10h2l-1 5c-2.512-3.769-3.127-6.262-3.063-10.688l.028-2.449L187 267Z" fill="#54A8AB"/>
    <path d="M201 299c3.313.125 3.313.125 7 1 1.938 3.063 1.938 3.063 3 6-4.435-1.394-6.874-3.606-10-7Z" fill="#4DA6AB"/>
    <path d="M225 268c3.394 3.126 5.606 5.565 7 10h-3v-2h-2l-2-8Z" fill="#4A9E9E"/>
    <path d="M311 225c2 3.875 2 3.875 2 5-1.46-.114-2.917-.242-4.375-.375l-2.46-.21C304 229 304 229 302 227h8l1-2Z" fill="#53B6B3"/>
    <path d="M190 282h3c2 6.625 2 6.625 2 10-2.34-2.127-3.807-4.062-5-7v-3Z" fill="#49A1A0"/>
    <path d="M224 207h3c-1.491 3.795-3.757 5.61-7 8v-5h4v-3Z" fill="#4A9495"/>
    <path d="M277 206c2.152 3.228 2.2 4.284 2 8a158.814 158.814 0 0 1-6-5v-2l3 1 1-2Z" fill="#52B1B2"/>
    <path d="M260 293h1v9l-4 2 3-11Z" fill="#4AA1A3"/>
    <path d="M236 286c2.19 3.285 2.998 6.207 4 10l-4-2v-8Z" fill="#489B9C"/>
    <path d="M264 283c1.467 3.815.433 6.29-1 10h-2c.61-3.558 1.578-6.683 3-10Z" fill="#4B9C9E"/>
    <path d="M198 251c3.821.53 6.062 1.497 9 4l-8-1-1-3Z" fill="#51A9AB"/>
</svg>
